<svg version="1.2" xmlns="http://www.w3.org/2000/svg" viewBox="0 0 437 1213" width="437" height="1213">
	<title>Web 1920 – 9</title>
	<defs>
		<clipPath clipPathUnits="userSpaceOnUse" id="cp1">
			<path d="m-1181-7577h1920v22910h-1920z"/>
		</clipPath>
		<clipPath clipPathUnits="userSpaceOnUse" id="cp2">
			<path d="m0-1114h459.87v2326.16h-459.87z"/>
		</clipPath>
	</defs>
	<style>
		.s0 { fill: #ff7900 } 
	</style>
	<g id="Web 1920 – 9" clip-path="url(#cp1)">
		<g id="Group 1160">
			<g id="Group 1159" clip-path="url(#cp2)">
				<g id="-e-">
					<path id="Path 2052" class="s0" d="m39.9 1.2c-56.7 92.5-48.2 209.6-4.4 305.2 22.9 50.1 54.7 95.6 90.6 137.1 17.8 20.6 36.5 40.8 56.8 58.9 19.2 17.1 40.6 32.5 65.1 41.2 19.3 6.8 42.9 10.9 61-1.7 12.7-8.9 14.8-28.2-0.7-35.7-15.8-7.7-34.9 0.4-44.8 13.5-13.6 18-15.2 42.7-9.7 63.9 6.9 26.5 24.2 48.7 40.3 70.2 17.1 22.9 33.6 46.4 48.8 70.6 30.2 48.1 56 99.3 72.2 153.8 29.7 99.4 25 214.2-35.8 301.5-7.4 10.6-15.5 20.5-24.4 29.9-1.3 1.4 0.8 3.5 2.2 2.1 65.6-69.5 87.5-170.2 76.1-263.2-13-104.9-66.3-200.3-127.8-284.5-15.4-21.1-32.8-41.5-43.3-65.7-9.8-22.8-12.5-50.9 1.1-72.8 5.7-9.2 13.8-16.1 24.5-18.3 8.5-1.7 19.4-0.9 25.3 6.3 7.3 8.9 2.4 20.4-6.1 26.2-8.6 5.8-19.7 8.1-29.9 7.4-25.7-1.7-50.2-14.7-70.6-29.5-21.3-15.4-39.8-34.2-57.6-53.4-35.9-38.6-68.6-80.5-94.2-126.6-50.3-90.8-71.4-203.4-29.4-301.6 4.9-11.5 10.7-22.6 17.2-33.2 1.1-1.7-1.5-3.2-2.5-1.6z"/>
				</g>
			</g>
		</g>
	</g>
</svg>