<svg version="1.2" xmlns="http://www.w3.org/2000/svg" viewBox="0 0 221 641" width="221" height="641">
	<title>Web 1920 – 9</title>
	<defs>
		<clipPath clipPathUnits="userSpaceOnUse" id="cp1">
			<path d="m-1406-6430h1920v22910h-1920z"/>
		</clipPath>
		<clipPath clipPathUnits="userSpaceOnUse" id="cp2">
			<path d="m-225 33h459.87v2326.16h-459.87z"/>
		</clipPath>
	</defs>
	<style>
		.s0 { fill: #ff7900 } 
	</style>
	<g id="Web 1920 – 9" clip-path="url(#cp1)">
		<g id="Group 1160">
			<g id="Group 1159" clip-path="url(#cp2)">
				<g id="yuie-">
					<g id="-e-">
						<path id="Path 2051" class="s0" d="m2.4 6.7c24.3-7.4 49.8-1.5 72 9.5 22.9 11.3 43 27.7 60.9 45.7 36 36.2 63.4 81.8 75.8 131.6 6.1 24.6 8.4 50.4 5.8 75.7-2.6 26.1-10.6 51.2-21.8 74.8-22.7 47.8-56.8 88.6-83.4 134-25.2 43-45.7 93.4-38.6 144.2q1.2 8.8 3.6 17.5c0.5 1.9 3.3 0.9 2.8-1-13.8-51.6 4.6-104.7 29.5-149.8 25.9-47 60.9-88.3 85.2-136.3 11.8-23.3 20.9-48.2 24.6-74.2 3.6-25 2.5-50.4-2.5-75.1-10.1-50.2-35.8-96.8-70.2-134.4-17.1-18.7-36.6-35.9-58.5-48.9-20.6-12.3-44.6-21.3-68.9-19.4-5.9 0.4-11.7 1.5-17.3 3.2-1.8 0.6-0.9 3.4 1 2.9z"/>
					</g>
				</g>
			</g>
		</g>
	</g>
</svg>