<svg version="1.2" xmlns="http://www.w3.org/2000/svg" viewBox="0 0 649 1483" width="649" height="1483">
	<title>Web 1920 – 9</title>
	<defs>
		<clipPath clipPathUnits="userSpaceOnUse" id="cp1">
			<path d="m-1228-8957h1920v22910h-1920z"/>
		</clipPath>
		<clipPath clipPathUnits="userSpaceOnUse" id="cp2">
			<path d="m0.94 0.96h647.45v1481.32h-647.45z"/>
		</clipPath>
	</defs>
	<style>
		.s0 { fill: #ff7900 } 
	</style>
	<g id="Web 1920 – 9" clip-path="url(#cp1)">
		<g id="Group 1162">
			<g id="Group 1161" clip-path="url(#cp2)">
				<g id="-e-">
					<path id="Path 2053" class="s0" d="m35.9 1.8c-36.5 67.7-34.3 154.6 7.1 219.7 39.1 61.4 110.7 100.1 183.2 99.6 17.6-0.1 37.1-1.7 51.9-12.2 11.7-8.3 18.9-22.9 15.9-37.3-2.6-12.9-14.3-21.6-27.4-20-14.8 1.8-27.5 13.7-35.1 25.8-20.2 32.3-16.3 77.1-6.2 112 12 41.4 34.5 78.9 58.2 114.5 49.8 75 108.5 143.4 164.4 213.8 54.9 69.1 107.4 141 145.2 221.2 35 74 57.1 155.6 51.7 238.1-4.9 73.1-30.1 146.9-78.9 202.3-55.3 62.9-135.5 89.9-216.8 97.2-92.5 8.3-185-7.1-277.6-5.3-23.3 0.5-46.4 2.1-69.4 5.3-2.1 0.2-1.2 3.4 0.9 3.1 93.7-12.9 187.8 2.2 281.7 2.7 77.3 0.3 158.5-9.6 225.4-51.3 120-74.9 156.8-232.2 130-364.2-33.7-166.2-147.6-298.8-250.8-427-27.7-34.5-55.2-69.3-80.9-105.4-24.7-34.7-49-70.5-66.5-109.5-16.7-37.4-27.7-80.2-17.4-120.9 4.8-18.9 14.4-37.5 32.7-46.2 20-9.5 38.5 6.7 33.2 28.1-5.3 21.4-27.8 29.1-47.4 31.1-18.2 1.9-37 0.8-55-2.5-36.9-6.8-71.9-23.4-100.7-47.6-60.2-50.5-85.8-132.6-68.8-209.2 4.2-19 11-37.2 20.2-54.3 1-1.8-1.8-3.5-2.8-1.6z"/>
				</g>
			</g>
		</g>
	</g>
</svg>