<svg version="1.2" xmlns="http://www.w3.org/2000/svg" viewBox="0 0 367 1119" width="367" height="1119">
	<title>Web 1920 – 9</title>
	<defs>
		<clipPath clipPathUnits="userSpaceOnUse" id="cp1">
			<path d="m-94-3940h1920v22910h-1920z"/>
		</clipPath>
		<clipPath clipPathUnits="userSpaceOnUse" id="cp2">
			<path d="m0.07 0.93h366.8v1118.07h-366.8z"/>
		</clipPath>
	</defs>
	<style>
		.s0 { fill: #00259a } 
	</style>
	<g id="Web 1920 – 9" clip-path="url(#cp1)">
		<g id="Group 1164">
			<g id="Group 1163" clip-path="url(#cp2)">
				<g id="-e-">
					<path id="Path 2054" class="s0" d="m252.4 2.4c12.3 99.2-16.4 197.9-57.4 290.2-40.5 91.2-93.8 177.8-134.6 269-38.4 85.6-65.1 176.3-59.6 268.6 4.9 81.5 36.3 163.8 106.9 221.2 59.7 48.6 145.5 79.4 228.4 63.3 10.1-2 20-4.7 29.6-8 2.1-0.7 1.2-3.6-0.9-2.9-81.4 27.7-171.8 4.4-237.2-41.4-34.3-24-62.3-54.1-81.9-88.1-23-40-35.6-83.9-40.1-128.2-9.2-90.6 14.1-180.8 50.3-265.6 38.2-89.7 89.8-174.6 131.5-263.1 41.8-88.8 74.4-183.5 71.3-280-0.4-11.7-1.4-23.4-2.8-35-0.2-1.9-3.8-2-3.5 0z"/>
				</g>
			</g>
		</g>
	</g>
</svg>