<svg version="1.2" xmlns="http://www.w3.org/2000/svg" viewBox="0 0 262 1309" width="262" height="1309">
	<title>Web 1920 – 9</title>
	<defs>
		<clipPath clipPathUnits="userSpaceOnUse" id="cp1">
			<path d="m-109-11699h1920v22910h-1920z"/>
		</clipPath>
		<clipPath clipPathUnits="userSpaceOnUse" id="cp2">
			<path d="m0 0.5h261.29v1307.87h-261.29z"/>
		</clipPath>
	</defs>
	<style>
		.s0 { fill: #e8a650 } 
	</style>
	<g id="Web 1920 – 9" clip-path="url(#cp1)">
		<g id="Group 1167">
			<g id="Group 1166" clip-path="url(#cp2)">
				<g id="-e-">
					<path id="Path 2055" class="s0" d="m258.3 1.6c-13.1 46.4-27.7 93.4-52.5 135.2-23.6 39.9-61.4 79.7-109.3 87.2-24 3.8-54.2-4.8-56.3-32.9-0.8-9.3 1.6-19.8 8.3-26.6 7.8-7.9 20.2-8.2 29.2-2.2 21.6 14.1 25 46.9 28.4 69.8 4.9 32.6 6.3 65.5 5.3 98.4-4 129.8-46.1 253.8-77.3 378.8-29.5 118.5-50.1 245-17.6 365.2 25.6 94.4 88.4 183.2 180.3 222.4 10.6 4.6 21.6 8.3 32.7 11.4 1.9 0.5 2.7-2.4 0.8-2.9-104.2-28.6-178.5-121.7-208.3-222.5-37.9-128.4-12.9-264.5 19.7-391.2 33.2-129 75.8-258.6 72.9-393.4-0.7-31.9-3.7-64.3-10.7-95.5-4.2-18.2-14-43.5-34.9-47.3-17.3-3.1-29.4 10.6-31.6 26.6-2.7 20 8.6 36.6 27.5 42.9 23.5 7.9 49.6-0.4 70.4-11.9 20.4-11.1 37.9-26.8 52.4-44.8 30.5-37.8 48.5-84.3 62.9-130.3 3.8-11.8 7.2-23.7 10.6-35.6 0.6-1.9-2.3-2.7-2.9-0.8z"/>
				</g>
			</g>
		</g>
	</g>
</svg>