<svg version="1.2" xmlns="http://www.w3.org/2000/svg" viewBox="0 0 332 1243" width="332" height="1243">
	<title>Web 1920 – 9</title>
	<defs>
		<clipPath clipPathUnits="userSpaceOnUse" id="cp1">
			<path d="m-1471-15032h1920v22910h-1920z"/>
		</clipPath>
		<clipPath clipPathUnits="userSpaceOnUse" id="cp2">
			<path d="m-194.93 38.29l432.33-84.04 234.13 1204.47-432.33 84.03z"/>
		</clipPath>
	</defs>
	<style>
		.s0 { fill: #ff7900 } 
	</style>
	<g id="Web 1920 – 9" clip-path="url(#cp1)">
		<g id="Group 1169">
			<g id="Group 1168" clip-path="url(#cp2)">
				<g id="-e-">
					<path id="Path 2056" class="s0" d="m1.3 3c48.5 12.8 87.1 46.5 121.1 81.9 37.9 39.4 74.5 80.7 107 124.7 65.3 88.4 116.3 200.9 93.8 313.1-9 45.1-32.9 92.5-76.1 113.2-16.3 7.9-42.2 9.4-56-4.5-3.1-3.1-5.3-7-6.1-11.3-0.7-3.2-0.1-3.5 3.5-4.2 3.5-0.7 7-0.2 10.4 1.1 11.3 4.3 19 15.3 23.9 25.8 22.2 47.2 12.2 102.6-8.8 148.3-22.4 48.9-59.1 89.5-91.5 132-31.2 41-56.9 84.8-72.2 134.2-14.8 47.4-20.5 97.6-16.4 147.1 1.1 12.4 2.8 24.7 5 36.9 0.4 1.9 3.3 1.4 3-0.5-17.6-95.1 2.8-195.4 55.1-276.5 51.6-80.1 133-148.3 140.8-249.3 1.9-24.1-1.2-48.7-11.1-70.8-7-15.9-24.1-39.2-44.3-29.2-0.7 0.3-0.9 0.9-0.9 1.6 1.4 21 23.7 28.6 41.8 28 23.9-0.8 45.1-15.8 60.8-32.9 38.1-41.7 49.3-101.9 46.9-156.6-6-134-90.5-245.4-177.2-340.8-42.3-46.7-88.3-97.4-151.5-114.2-1.9-0.5-2.9 2.4-1 2.9z"/>
				</g>
			</g>
		</g>
	</g>
</svg>